<svg xmlns="http://www.w3.org/2000/svg" xmlns:xlink="http://www.w3.org/1999/xlink" contentStyleType="text/css" height="1331px" preserveAspectRatio="none" style="width:933px;height:1331px;background:#FFFFFF;" version="1.1" viewBox="0 0 933 1331" width="933px" zoomAndPan="magnify"><defs/><g><!--class src.domain.cards.Card--><g id="elem_Card"><rect codeLine="2" fill="#F1F1F1" height="178.3477" id="src.domain.cards.Card" rx="2.5" ry="2.5" style="stroke:#181818;stroke-width:0.5;" width="167.5996" x="445.5" y="1146"/><ellipse cx="504.3774" cy="1162" fill="#ADD1B2" rx="11" ry="11" style="stroke:#181818;stroke-width:1.0;"/><path d="M507.1431,1157.875 Q507.2993,1157.6563 507.4868,1157.5469 Q507.6743,1157.4375 507.8931,1157.4375 Q508.2681,1157.4375 508.5024,1157.7031 Q508.7368,1157.9531 508.7368,1158.5625 L508.7368,1160.0156 Q508.7368,1160.625 508.5024,1160.8906 Q508.2681,1161.1563 507.8931,1161.1563 Q507.5493,1161.1563 507.3462,1160.9531 Q507.1431,1160.7656 507.0337,1160.25 Q506.9868,1159.8906 506.7993,1159.7031 Q506.4712,1159.3281 505.8618,1159.1094 Q505.2524,1158.8906 504.6274,1158.8906 Q503.8618,1158.8906 503.2212,1159.2188 Q502.5962,1159.5469 502.0962,1160.2969 Q501.6118,1161.0469 501.6118,1162.0781 L501.6118,1163.1719 Q501.6118,1164.4063 502.5024,1165.2344 Q503.3931,1166.0469 504.9868,1166.0469 Q505.9243,1166.0469 506.5806,1165.7969 Q506.9712,1165.6406 507.3931,1165.2031 Q507.6587,1164.9375 507.7993,1164.8594 Q507.9556,1164.7813 508.1587,1164.7813 Q508.4868,1164.7813 508.7368,1165.0469 Q509.0024,1165.2969 509.0024,1165.6406 Q509.0024,1165.9844 508.6587,1166.3906 Q508.1587,1166.9688 507.3618,1167.2969 Q506.2837,1167.75 504.9868,1167.75 Q503.4712,1167.75 502.2681,1167.125 Q501.2837,1166.625 500.5962,1165.5625 Q499.9087,1164.4844 499.9087,1163.2031 L499.9087,1162.0469 Q499.9087,1160.7188 500.5181,1159.5781 Q501.1431,1158.4219 502.2368,1157.8125 Q503.3306,1157.1875 504.5649,1157.1875 Q505.2993,1157.1875 505.9399,1157.3594 Q506.5962,1157.5156 507.1431,1157.875 Z " fill="#000000"/><ellipse cx="529.8774" cy="1161.5" fill="#84BE84" rx="3" ry="3" style="stroke:#038048;stroke-width:1.0;"/><text fill="#000000" font-family="sans-serif" font-size="14" lengthAdjust="spacing" textLength="30.3447" x="535.8774" y="1167.7969">src.domain.cards.Card</text><line style="stroke:#181818;stroke-width:0.5;" x1="446.5" x2="612.0996" y1="1178" y2="1178"/><rect fill="none" height="6" style="stroke:#C82930;stroke-width:1.0;" width="6" x="453.5" y="1189.8105"/><text fill="#000000" font-family="sans-serif" font-size="14" lengthAdjust="spacing" textLength="88.7236" x="465.5" y="1197.1074">{final} rank: int</text><rect fill="none" height="6" style="stroke:#C82930;stroke-width:1.0;" width="6" x="453.5" y="1208.4316"/><text fill="#000000" font-family="sans-serif" font-size="14" lengthAdjust="spacing" textLength="83.2754" x="465.5" y="1215.7285">{final} suit: int</text><line style="stroke:#181818;stroke-width:0.5;" x1="446.5" x2="612.0996" y1="1223.2422" y2="1223.2422"/><ellipse cx="456.5" cy="1238.0527" fill="#84BE84" rx="3" ry="3" style="stroke:#038048;stroke-width:1.0;"/><text fill="#000000" font-family="sans-serif" font-size="14" lengthAdjust="spacing" textLength="141.5996" x="465.5" y="1242.3496">src.domain.Card(rank: int, suit: int)</text><ellipse cx="456.5" cy="1256.6738" fill="#84BE84" rx="3" ry="3" style="stroke:#038048;stroke-width:1.0;"/><text fill="#000000" font-family="sans-serif" font-size="14" lengthAdjust="spacing" textLength="84.0342" x="465.5" y="1260.9707">getRank(): int</text><ellipse cx="456.5" cy="1275.2949" fill="#84BE84" rx="3" ry="3" style="stroke:#038048;stroke-width:1.0;"/><text fill="#000000" font-family="sans-serif" font-size="14" lengthAdjust="spacing" textLength="117.5029" x="465.5" y="1279.5918">getCardValue(): int</text><ellipse cx="456.5" cy="1293.916" fill="#84BE84" rx="3" ry="3" style="stroke:#038048;stroke-width:1.0;"/><text fill="#000000" font-family="sans-serif" font-size="14" lengthAdjust="spacing" textLength="75.4756" x="465.5" y="1298.2129">getSuit(): int</text><ellipse cx="456.5" cy="1312.5371" fill="#84BE84" rx="3" ry="3" style="stroke:#038048;stroke-width:1.0;"/><text fill="#000000" font-family="sans-serif" font-size="14" lengthAdjust="spacing" textLength="101.9238" x="465.5" y="1316.834">toString(): String</text></g><!--class src.domain.cards.Deck--><g id="elem_Deck"><rect codeLine="13" fill="#F1F1F1" height="196.9688" id="src.domain.cards.Deck" rx="2.5" ry="2.5" style="stroke:#181818;stroke-width:0.5;" width="238.4268" x="570.5" y="842.5"/><ellipse cx="664.0151" cy="858.5" fill="#ADD1B2" rx="11" ry="11" style="stroke:#181818;stroke-width:1.0;"/><path d="M666.7808,854.375 Q666.937,854.1563 667.1245,854.0469 Q667.312,853.9375 667.5308,853.9375 Q667.9058,853.9375 668.1401,854.2031 Q668.3745,854.4531 668.3745,855.0625 L668.3745,856.5156 Q668.3745,857.125 668.1401,857.3906 Q667.9058,857.6563 667.5308,857.6563 Q667.187,857.6563 666.9839,857.4531 Q666.7808,857.2656 666.6714,856.75 Q666.6245,856.3906 666.437,856.2031 Q666.1089,855.8281 665.4995,855.6094 Q664.8901,855.3906 664.2651,855.3906 Q663.4995,855.3906 662.8589,855.7188 Q662.2339,856.0469 661.7339,856.7969 Q661.2495,857.5469 661.2495,858.5781 L661.2495,859.6719 Q661.2495,860.9063 662.1401,861.7344 Q663.0308,862.5469 664.6245,862.5469 Q665.562,862.5469 666.2183,862.2969 Q666.6089,862.1406 667.0308,861.7031 Q667.2964,861.4375 667.437,861.3594 Q667.5933,861.2813 667.7964,861.2813 Q668.1245,861.2813 668.3745,861.5469 Q668.6401,861.7969 668.6401,862.1406 Q668.6401,862.4844 668.2964,862.8906 Q667.7964,863.4688 666.9995,863.7969 Q665.9214,864.25 664.6245,864.25 Q663.1089,864.25 661.9058,863.625 Q660.9214,863.125 660.2339,862.0625 Q659.5464,860.9844 659.5464,859.7031 L659.5464,858.5469 Q659.5464,857.2188 660.1558,856.0781 Q660.7808,854.9219 661.8745,854.3125 Q662.9683,853.6875 664.2026,853.6875 Q664.937,853.6875 665.5776,853.8594 Q666.2339,854.0156 666.7808,854.375 Z " fill="#000000"/><ellipse cx="689.5151" cy="858" fill="#84BE84" rx="3" ry="3" style="stroke:#038048;stroke-width:1.0;"/><text fill="#000000" font-family="sans-serif" font-size="14" lengthAdjust="spacing" textLength="31.8965" x="695.5151" y="864.2969">src.domain.cards.Deck</text><line style="stroke:#181818;stroke-width:0.5;" x1="571.5" x2="807.9268" y1="874.5" y2="874.5"/><ellipse cx="581.5" cy="889.3105" fill="none" rx="3" ry="3" style="stroke:#038048;stroke-width:1.0;"/><text fill="#000000" font-family="sans-serif" font-size="14" lengthAdjust="spacing" textLength="123.7236" x="590.5" y="893.6074">cards: Stack&lt;src.domain.Card&gt;</text><rect fill="none" height="6" style="stroke:#C82930;stroke-width:1.0;" width="6" x="578.5" y="904.9316"/><text fill="#000000" font-family="sans-serif" font-size="14" lengthAdjust="spacing" textLength="47.4619" x="590.5" y="912.2285">size: int</text><line style="stroke:#181818;stroke-width:0.5;" x1="571.5" x2="807.9268" y1="919.7422" y2="919.7422"/><ellipse cx="581.5" cy="934.5527" fill="#84BE84" rx="3" ry="3" style="stroke:#038048;stroke-width:1.0;"/><text fill="#000000" font-family="sans-serif" font-size="14" lengthAdjust="spacing" textLength="143.9443" x="590.5" y="938.8496">src.domain.Deck(fillDeck: boolean)</text><ellipse cx="581.5" cy="953.1738" fill="#84BE84" rx="3" ry="3" style="stroke:#038048;stroke-width:1.0;"/><text fill="#000000" font-family="sans-serif" font-size="14" lengthAdjust="spacing" textLength="78.5859" x="590.5" y="957.4707">getSize(): int</text><ellipse cx="581.5" cy="971.7949" fill="#84BE84" rx="3" ry="3" style="stroke:#038048;stroke-width:1.0;"/><text fill="#000000" font-family="sans-serif" font-size="14" lengthAdjust="spacing" textLength="212.4268" x="590.5" y="976.0918">addCard(randomCard: src.domain.Card): void</text><ellipse cx="581.5" cy="990.416" fill="#84BE84" rx="3" ry="3" style="stroke:#038048;stroke-width:1.0;"/><text fill="#000000" font-family="sans-serif" font-size="14" lengthAdjust="spacing" textLength="124.4756" x="590.5" y="994.7129">removeCard():
    src.domain.cards.Card</text><ellipse cx="581.5" cy="1009.0371" fill="#84BE84" rx="3" ry="3" style="stroke:#038048;stroke-width:1.0;"/><text fill="#000000" font-family="sans-serif" font-size="14" lengthAdjust="spacing" textLength="132.2754" x="590.5" y="1013.334">peekTopCard():
    src.domain.cards.Card</text><ellipse cx="581.5" cy="1027.6582" fill="#84BE84" rx="3" ry="3" style="stroke:#038048;stroke-width:1.0;"/><text fill="#000000" font-family="sans-serif" font-size="14" lengthAdjust="spacing" textLength="84.0342" x="590.5" y="1031.9551">shuffle(): void</text></g><!--class src.domain.player.Player--><g id="elem_Player"><rect codeLine="25" fill="#F1F1F1" height="290.0742" id="src.domain.player.Player" rx="2.5" ry="2.5" style="stroke:#181818;stroke-width:0.5;" width="331.0264" x="204" y="796"/><ellipse cx="339.9219" cy="812" fill="#ADD1B2" rx="11" ry="11" style="stroke:#181818;stroke-width:1.0;"/><path d="M342.6875,807.875 Q342.8438,807.6563 343.0313,807.5469 Q343.2188,807.4375 343.4375,807.4375 Q343.8125,807.4375 344.0469,807.7031 Q344.2813,807.9531 344.2813,808.5625 L344.2813,810.0156 Q344.2813,810.625 344.0469,810.8906 Q343.8125,811.1563 343.4375,811.1563 Q343.0938,811.1563 342.8906,810.9531 Q342.6875,810.7656 342.5781,810.25 Q342.5313,809.8906 342.3438,809.7031 Q342.0156,809.3281 341.4063,809.1094 Q340.7969,808.8906 340.1719,808.8906 Q339.4063,808.8906 338.7656,809.2188 Q338.1406,809.5469 337.6406,810.2969 Q337.1563,811.0469 337.1563,812.0781 L337.1563,813.1719 Q337.1563,814.4063 338.0469,815.2344 Q338.9375,816.0469 340.5313,816.0469 Q341.4688,816.0469 342.125,815.7969 Q342.5156,815.6406 342.9375,815.2031 Q343.2031,814.9375 343.3438,814.8594 Q343.5,814.7813 343.7031,814.7813 Q344.0313,814.7813 344.2813,815.0469 Q344.5469,815.2969 344.5469,815.6406 Q344.5469,815.9844 344.2031,816.3906 Q343.7031,816.9688 342.9063,817.2969 Q341.8281,817.75 340.5313,817.75 Q339.0156,817.75 337.8125,817.125 Q336.8281,816.625 336.1406,815.5625 Q335.4531,814.4844 335.4531,813.2031 L335.4531,812.0469 Q335.4531,810.7188 336.0625,809.5781 Q336.6875,808.4219 337.7813,807.8125 Q338.875,807.1875 340.1094,807.1875 Q340.8438,807.1875 341.4844,807.3594 Q342.1406,807.5156 342.6875,807.875 Z " fill="#000000"/><ellipse cx="365.4219" cy="811.5" fill="#84BE84" rx="3" ry="3" style="stroke:#038048;stroke-width:1.0;"/><text fill="#000000" font-family="sans-serif" font-size="14" lengthAdjust="spacing" textLength="39.6826" x="371.4219" y="817.7969">src.domain.player.Player</text><line style="stroke:#181818;stroke-width:0.5;" x1="205" x2="534.0264" y1="828" y2="828"/><ellipse cx="215" cy="842.8105" fill="none" rx="3" ry="3" style="stroke:#038048;stroke-width:1.0;"/><text fill="#000000" font-family="sans-serif" font-size="14" lengthAdjust="spacing" textLength="140.8545" x="224" y="847.1074">hand: ArrayList&lt;src.domain.Card&gt;</text><rect fill="none" height="6" style="stroke:#C82930;stroke-width:1.0;" width="6" x="212" y="858.4316"/><text fill="#000000" font-family="sans-serif" font-size="14" lengthAdjust="spacing" textLength="118.2959" x="224" y="865.7285">{final} name: String</text><rect fill="none" height="6" style="stroke:#C82930;stroke-width:1.0;" width="6" x="212" y="877.0527"/><text fill="#000000" font-family="sans-serif" font-size="14" lengthAdjust="spacing" textLength="56.7998" x="224" y="884.3496">score: int</text><rect fill="none" height="6" style="stroke:#C82930;stroke-width:1.0;" width="6" x="212" y="895.6738"/><text fill="#000000" font-family="sans-serif" font-size="14" lengthAdjust="spacing" textLength="108.9648" x="224" y="902.9707">autoWin: boolean</text><line style="stroke:#181818;stroke-width:0.5;" x1="205" x2="534.0264" y1="910.4844" y2="910.4844"/><ellipse cx="215" cy="925.2949" fill="#84BE84" rx="3" ry="3" style="stroke:#038048;stroke-width:1.0;"/><text fill="#000000" font-family="sans-serif" font-size="14" lengthAdjust="spacing" textLength="128.3789" x="224" y="929.5918">src.domain.Player(name: String)</text><ellipse cx="215" cy="943.916" fill="#84BE84" rx="3" ry="3" style="stroke:#038048;stroke-width:1.0;"/><text fill="#000000" font-family="sans-serif" font-size="14" lengthAdjust="spacing" textLength="110.4824" x="224" y="948.2129">getName(): String</text><ellipse cx="215" cy="962.5371" fill="#84BE84" rx="3" ry="3" style="stroke:#038048;stroke-width:1.0;"/><text fill="#000000" font-family="sans-serif" font-size="14" lengthAdjust="spacing" textLength="87.9238" x="224" y="966.834">getScore(): int</text><ellipse cx="215" cy="981.1582" fill="#84BE84" rx="3" ry="3" style="stroke:#038048;stroke-width:1.0;"/><text fill="#000000" font-family="sans-serif" font-size="14" lengthAdjust="spacing" textLength="139.3027" x="224" y="985.4551">getAutoWin(): boolean</text><ellipse cx="215" cy="999.7793" fill="#84BE84" rx="3" ry="3" style="stroke:#038048;stroke-width:1.0;"/><text fill="#000000" font-family="sans-serif" font-size="14" lengthAdjust="spacing" textLength="212.4268" x="224" y="1004.0762">addCard(randomCard: src.domain.Card): void</text><ellipse cx="215" cy="1018.4004" fill="#84BE84" rx="3" ry="3" style="stroke:#038048;stroke-width:1.0;"/><text fill="#000000" font-family="sans-serif" font-size="14" lengthAdjust="spacing" textLength="235.751" x="224" y="1022.6973">removeCard(randomCard: src.domain.Card): void</text><ellipse cx="215" cy="1037.0215" fill="#84BE84" rx="3" ry="3" style="stroke:#038048;stroke-width:1.0;"/><text fill="#000000" font-family="sans-serif" font-size="14" lengthAdjust="spacing" textLength="182.8545" x="224" y="1041.3184">setScore(newScore: int): void</text><rect fill="#F24D5C" height="6" style="stroke:#C82930;stroke-width:1.0;" width="6" x="212" y="1052.6426"/><text fill="#000000" font-family="sans-serif" font-size="14" lengthAdjust="spacing" textLength="114.3721" x="224" y="1059.9395">setAutoWin(): void</text><ellipse cx="215" cy="1074.2637" fill="#84BE84" rx="3" ry="3" style="stroke:#038048;stroke-width:1.0;"/><text fill="#000000" font-family="sans-serif" font-size="14" lengthAdjust="spacing" textLength="305.0264" x="224" y="1078.5605">calculateScore(playerHand: ArrayList&lt;src.domain.Card&gt;): int</text></g><!--class AIPlayer--><g id="elem_AIPlayer"><rect codeLine="42" fill="#F1F1F1" height="122.4844" id="AIPlayer" rx="2.5" ry="2.5" style="stroke:#181818;stroke-width:0.5;" width="359.0195" x="7" y="614"/><ellipse cx="150.3047" cy="630" fill="#ADD1B2" rx="11" ry="11" style="stroke:#181818;stroke-width:1.0;"/><path d="M153.0703,625.875 Q153.2266,625.6563 153.4141,625.5469 Q153.6016,625.4375 153.8203,625.4375 Q154.1953,625.4375 154.4297,625.7031 Q154.6641,625.9531 154.6641,626.5625 L154.6641,628.0156 Q154.6641,628.625 154.4297,628.8906 Q154.1953,629.1563 153.8203,629.1563 Q153.4766,629.1563 153.2734,628.9531 Q153.0703,628.7656 152.9609,628.25 Q152.9141,627.8906 152.7266,627.7031 Q152.3984,627.3281 151.7891,627.1094 Q151.1797,626.8906 150.5547,626.8906 Q149.7891,626.8906 149.1484,627.2188 Q148.5234,627.5469 148.0234,628.2969 Q147.5391,629.0469 147.5391,630.0781 L147.5391,631.1719 Q147.5391,632.4063 148.4297,633.2344 Q149.3203,634.0469 150.9141,634.0469 Q151.8516,634.0469 152.5078,633.7969 Q152.8984,633.6406 153.3203,633.2031 Q153.5859,632.9375 153.7266,632.8594 Q153.8828,632.7813 154.0859,632.7813 Q154.4141,632.7813 154.6641,633.0469 Q154.9297,633.2969 154.9297,633.6406 Q154.9297,633.9844 154.5859,634.3906 Q154.0859,634.9688 153.2891,635.2969 Q152.2109,635.75 150.9141,635.75 Q149.3984,635.75 148.1953,635.125 Q147.2109,634.625 146.5234,633.5625 Q145.8359,632.4844 145.8359,631.2031 L145.8359,630.0469 Q145.8359,628.7188 146.4453,627.5781 Q147.0703,626.4219 148.1641,625.8125 Q149.2578,625.1875 150.4922,625.1875 Q151.2266,625.1875 151.8672,625.3594 Q152.5234,625.5156 153.0703,625.875 Z " fill="#000000"/><ellipse cx="175.8047" cy="629.5" fill="#84BE84" rx="3" ry="3" style="stroke:#038048;stroke-width:1.0;"/><text fill="#000000" font-family="sans-serif" font-size="14" lengthAdjust="spacing" textLength="52.9102" x="181.8047" y="635.7969">AIPlayer</text><line style="stroke:#181818;stroke-width:0.5;" x1="8" x2="365.0195" y1="646" y2="646"/><line style="stroke:#181818;stroke-width:0.5;" x1="8" x2="365.0195" y1="654" y2="654"/><ellipse cx="18" cy="668.8105" fill="#84BE84" rx="3" ry="3" style="stroke:#038048;stroke-width:1.0;"/><text fill="#000000" font-family="sans-serif" font-size="14" lengthAdjust="spacing" textLength="141.6064" x="27" y="673.1074">AIPlayer(name: String)</text><ellipse cx="18" cy="687.4316" fill="#84BE84" rx="3" ry="3" style="stroke:#038048;stroke-width:1.0;"/><text fill="#000000" font-family="sans-serif" font-size="14" lengthAdjust="spacing" textLength="224.8613" x="27" y="691.7285">improveHand(newCard:
    src.domain.Card): src.domain.cards.Card</text><rect fill="#F24D5C" height="6" style="stroke:#C82930;stroke-width:1.0;" width="6" x="15" y="703.0527"/><text fill="#000000" font-family="sans-serif" font-size="14" lengthAdjust="spacing" textLength="333.0195" x="27" y="710.3496">simulateHand(newCard:
    src.domain.cards.Card, discardCard: src.domain.Card): int</text><ellipse cx="18" cy="724.6738" fill="#84BE84" rx="3" ry="3" style="stroke:#038048;stroke-width:1.0;"/><text fill="#000000" font-family="sans-serif" font-size="14" lengthAdjust="spacing" textLength="147.0957" x="27" y="728.9707">shouldKnock(): boolean</text></g><!--class Game--><g id="elem_Game"><rect codeLine="49" fill="#F1F1F1" height="401.8008" id="Game" rx="2.5" ry="2.5" style="stroke:#181818;stroke-width:0.5;" width="359.7988" x="472.5" y="152"/><ellipse cx="623.5874" cy="168" fill="#ADD1B2" rx="11" ry="11" style="stroke:#181818;stroke-width:1.0;"/><path d="M626.353,163.875 Q626.5093,163.6563 626.6968,163.5469 Q626.8843,163.4375 627.103,163.4375 Q627.478,163.4375 627.7124,163.7031 Q627.9468,163.9531 627.9468,164.5625 L627.9468,166.0156 Q627.9468,166.625 627.7124,166.8906 Q627.478,167.1563 627.103,167.1563 Q626.7593,167.1563 626.5562,166.9531 Q626.353,166.7656 626.2437,166.25 Q626.1968,165.8906 626.0093,165.7031 Q625.6812,165.3281 625.0718,165.1094 Q624.4624,164.8906 623.8374,164.8906 Q623.0718,164.8906 622.4312,165.2188 Q621.8062,165.5469 621.3062,166.2969 Q620.8218,167.0469 620.8218,168.0781 L620.8218,169.1719 Q620.8218,170.4063 621.7124,171.2344 Q622.603,172.0469 624.1968,172.0469 Q625.1343,172.0469 625.7905,171.7969 Q626.1812,171.6406 626.603,171.2031 Q626.8687,170.9375 627.0093,170.8594 Q627.1655,170.7813 627.3687,170.7813 Q627.6968,170.7813 627.9468,171.0469 Q628.2124,171.2969 628.2124,171.6406 Q628.2124,171.9844 627.8687,172.3906 Q627.3687,172.9688 626.5718,173.2969 Q625.4937,173.75 624.1968,173.75 Q622.6812,173.75 621.478,173.125 Q620.4937,172.625 619.8062,171.5625 Q619.1187,170.4844 619.1187,169.2031 L619.1187,168.0469 Q619.1187,166.7188 619.728,165.5781 Q620.353,164.4219 621.4468,163.8125 Q622.5405,163.1875 623.7749,163.1875 Q624.5093,163.1875 625.1499,163.3594 Q625.8062,163.5156 626.353,163.875 Z " fill="#000000"/><ellipse cx="649.0874" cy="167.5" fill="#84BE84" rx="3" ry="3" style="stroke:#038048;stroke-width:1.0;"/><text fill="#000000" font-family="sans-serif" font-size="14" lengthAdjust="spacing" textLength="38.124" x="655.0874" y="173.7969">Game</text><line style="stroke:#181818;stroke-width:0.5;" x1="473.5" x2="831.2988" y1="184" y2="184"/><rect fill="none" height="6" style="stroke:#C82930;stroke-width:1.0;" width="6" x="480.5" y="195.8105"/><text fill="#000000" font-family="sans-serif" font-size="14" lengthAdjust="spacing" textLength="108.1719" x="492.5" y="203.1074">{final}
    deck: src.domain.cards.Deck</text><rect fill="none" height="6" style="stroke:#C82930;stroke-width:1.0;" width="6" x="480.5" y="214.4316"/><text fill="#000000" font-family="sans-serif" font-size="14" lengthAdjust="spacing" textLength="147.0752" x="492.5" y="221.7285">{final}
    discardPile: src.domain.cards.Deck</text><rect fill="none" height="6" style="stroke:#C82930;stroke-width:1.0;" width="6" x="480.5" y="233.0527"/><text fill="#000000" font-family="sans-serif" font-size="14" lengthAdjust="spacing" textLength="169.6543" x="492.5" y="240.3496">{final} players: List&lt;src.domain.Player&gt;</text><rect fill="none" height="6" style="stroke:#C82930;stroke-width:1.0;" width="6" x="480.5" y="251.6738"/><text fill="#000000" font-family="sans-serif" font-size="14" lengthAdjust="spacing" textLength="183.7021" x="492.5" y="258.9707">{final} gameRunning: boolean</text><rect fill="none" height="6" style="stroke:#C82930;stroke-width:1.0;" width="6" x="480.5" y="270.2949"/><text fill="#000000" font-family="sans-serif" font-size="14" lengthAdjust="spacing" textLength="189.1436" x="492.5" y="277.5918">{final} playerKnocked: boolean</text><line style="stroke:#181818;stroke-width:0.5;" x1="473.5" x2="831.2988" y1="285.1055" y2="285.1055"/><ellipse cx="483.5" cy="299.916" fill="#84BE84" rx="3" ry="3" style="stroke:#038048;stroke-width:1.0;"/><text fill="#000000" font-family="sans-serif" font-size="14" lengthAdjust="spacing" textLength="263.7783" x="492.5" y="304.2129">Game(d: deck, disc: deck, p: List&lt;src.domain.Player&gt;)</text><ellipse cx="483.5" cy="318.5371" fill="#84BE84" rx="3" ry="3" style="stroke:#038048;stroke-width:1.0;"/><text fill="#000000" font-family="sans-serif" font-size="14" lengthAdjust="spacing" textLength="224.0957" x="492.5" y="322.834">displayTurnInfo(player: src.domain.Player): void</text><ellipse cx="483.5" cy="337.1582" fill="#84BE84" rx="3" ry="3" style="stroke:#038048;stroke-width:1.0;"/><text fill="#000000" font-family="sans-serif" font-size="14" lengthAdjust="spacing" textLength="169.6201" x="492.5" y="341.4551">promptPlayerChoice(): void</text><ellipse cx="483.5" cy="355.7793" fill="#84BE84" rx="3" ry="3" style="stroke:#038048;stroke-width:1.0;"/><text fill="#000000" font-family="sans-serif" font-size="14" lengthAdjust="spacing" textLength="233.4336" x="492.5" y="360.0762">displayNewHand(player: src.domain.Player): void</text><text fill="#000000" font-family="sans-serif" font-size="14" lengthAdjust="spacing" textLength="3.8896" x="492.5" y="378.6973">&#160;</text><rect fill="#F24D5C" height="6" style="stroke:#C82930;stroke-width:1.0;" width="6" x="480.5" y="390.0215"/><text fill="#000000" font-family="sans-serif" font-size="14" lengthAdjust="spacing" textLength="76.2549" x="492.5" y="397.3184">delay(): void</text><ellipse cx="483.5" cy="411.6426" fill="#84BE84" rx="3" ry="3" style="stroke:#038048;stroke-width:1.0;"/><text fill="#000000" font-family="sans-serif" font-size="14" lengthAdjust="spacing" textLength="108.1377" x="492.5" y="415.9395">startGame(): void</text><ellipse cx="483.5" cy="430.2637" fill="#84BE84" rx="3" ry="3" style="stroke:#038048;stroke-width:1.0;"/><text fill="#000000" font-family="sans-serif" font-size="14" lengthAdjust="spacing" textLength="227.2266" x="492.5" y="434.5605">nextPlayerIndex(playerIndex: int): int</text><ellipse cx="483.5" cy="448.8848" fill="#84BE84" rx="3" ry="3" style="stroke:#038048;stroke-width:1.0;"/><text fill="#000000" font-family="sans-serif" font-size="14" lengthAdjust="spacing" textLength="318.2402" x="492.5" y="453.1816">drawDeckCard(player:
    src.domain.player.Player, scan: Scanner): void</text><ellipse cx="483.5" cy="467.5059" fill="#84BE84" rx="3" ry="3" style="stroke:#038048;stroke-width:1.0;"/><text fill="#000000" font-family="sans-serif" font-size="14" lengthAdjust="spacing" textLength="333.7988" x="492.5" y="471.8027">drawDiscardCard(player:
    src.domain.player.Player, scan: Scanner): void</text><ellipse cx="483.5" cy="486.127" fill="#84BE84" rx="3" ry="3" style="stroke:#038048;stroke-width:1.0;"/><text fill="#000000" font-family="sans-serif" font-size="14" lengthAdjust="spacing" textLength="292.5713" x="492.5" y="490.4238">playerTurn(player:
    src.domain.player.Player, scan: Scanner): void</text><ellipse cx="483.5" cy="504.748" fill="#84BE84" rx="3" ry="3" style="stroke:#038048;stroke-width:1.0;"/><text fill="#000000" font-family="sans-serif" font-size="14" lengthAdjust="spacing" textLength="267.668" x="492.5" y="509.0449">AITurn(player:
    src.domain.player.Player, scan: Scanner): void</text><ellipse cx="483.5" cy="523.3691" fill="#84BE84" rx="3" ry="3" style="stroke:#038048;stroke-width:1.0;"/><text fill="#000000" font-family="sans-serif" font-size="14" lengthAdjust="spacing" textLength="163.3857" x="492.5" y="527.666">determineWinner():
    src.domain.player.Player</text><ellipse cx="483.5" cy="541.9902" fill="#84BE84" rx="3" ry="3" style="stroke:#038048;stroke-width:1.0;"/><text fill="#000000" font-family="sans-serif" font-size="14" lengthAdjust="spacing" textLength="106.5928" x="492.5" y="546.2871">playGame(): void</text></g><!--class Main--><g id="elem_Main"><rect codeLine="72" fill="#F1F1F1" height="85.2422" id="Main" rx="2.5" ry="2.5" style="stroke:#181818;stroke-width:0.5;" width="204.1719" x="317.5" y="7"/><ellipse cx="394.6636" cy="23" fill="#ADD1B2" rx="11" ry="11" style="stroke:#181818;stroke-width:1.0;"/><path d="M397.4292,18.875 Q397.5854,18.6563 397.7729,18.5469 Q397.9604,18.4375 398.1792,18.4375 Q398.5542,18.4375 398.7886,18.7031 Q399.0229,18.9531 399.0229,19.5625 L399.0229,21.0156 Q399.0229,21.625 398.7886,21.8906 Q398.5542,22.1563 398.1792,22.1563 Q397.8354,22.1563 397.6323,21.9531 Q397.4292,21.7656 397.3198,21.25 Q397.2729,20.8906 397.0854,20.7031 Q396.7573,20.3281 396.1479,20.1094 Q395.5386,19.8906 394.9136,19.8906 Q394.1479,19.8906 393.5073,20.2188 Q392.8823,20.5469 392.3823,21.2969 Q391.8979,22.0469 391.8979,23.0781 L391.8979,24.1719 Q391.8979,25.4063 392.7886,26.2344 Q393.6792,27.0469 395.2729,27.0469 Q396.2104,27.0469 396.8667,26.7969 Q397.2573,26.6406 397.6792,26.2031 Q397.9448,25.9375 398.0854,25.8594 Q398.2417,25.7813 398.4448,25.7813 Q398.7729,25.7813 399.0229,26.0469 Q399.2886,26.2969 399.2886,26.6406 Q399.2886,26.9844 398.9448,27.3906 Q398.4448,27.9688 397.6479,28.2969 Q396.5698,28.75 395.2729,28.75 Q393.7573,28.75 392.5542,28.125 Q391.5698,27.625 390.8823,26.5625 Q390.1948,25.4844 390.1948,24.2031 L390.1948,23.0469 Q390.1948,21.7188 390.8042,20.5781 Q391.4292,19.4219 392.5229,18.8125 Q393.6167,18.1875 394.8511,18.1875 Q395.5854,18.1875 396.2261,18.3594 Q396.8823,18.5156 397.4292,18.875 Z " fill="#000000"/><ellipse cx="420.1636" cy="22.5" fill="#84BE84" rx="3" ry="3" style="stroke:#038048;stroke-width:1.0;"/><text fill="#000000" font-family="sans-serif" font-size="14" lengthAdjust="spacing" textLength="30.3447" x="426.1636" y="28.7969">Main</text><line style="stroke:#181818;stroke-width:0.5;" x1="318.5" x2="520.6719" y1="39" y2="39"/><line style="stroke:#181818;stroke-width:0.5;" x1="318.5" x2="520.6719" y1="47" y2="47"/><ellipse cx="328.5" cy="61.8105" fill="#84BE84" rx="3" ry="3" style="stroke:#038048;stroke-width:1.0;"/><text fill="#000000" font-family="sans-serif" font-size="14" lengthAdjust="spacing" text-decoration="underline" textLength="178.1719" x="337.5" y="66.1074">printGameDescription(): void</text><ellipse cx="328.5" cy="80.4316" fill="#84BE84" rx="3" ry="3" style="stroke:#038048;stroke-width:1.0;"/><text fill="#000000" font-family="sans-serif" font-size="14" lengthAdjust="spacing" text-decoration="underline" textLength="148.6064" x="337.5" y="84.7285">main(String[] args): void</text></g><!--link src.domain.cards.Deck to src.domain.cards.Card--><g id="link_Deck_Card"><path codeLine="78" d="M623.89,1039.64 C604.14,1073.96 585.9724,1106.9634 568.7624,1140.4534 " fill="none" id="src.domain.Deck-to-src.domain.cards.Card" style="stroke:#181818;stroke-width:1.0;"/><polygon fill="#181818" points="566.02,1145.79,573.6913,1139.6134,568.3053,1141.3428,566.5759,1135.9568,566.02,1145.79" style="stroke:#181818;stroke-width:1.0;"/><text fill="#000000" font-family="sans-serif" font-size="13" lengthAdjust="spacing" textLength="5.0591" x="563.8563" y="1134.7244">*</text></g><!--link src.domain.cards.Deck to src.domain.cards.Card--><g id="link_Deck_Card"><path codeLine="79" d="M648.82,1039.64 C631.01,1073.96 612.926,1107.119 593.366,1140.609 " fill="none" id="src.domain.Deck-to-src.domain.Card-1" style="stroke:#181818;stroke-width:1.0;stroke-dasharray:7.0,7.0;"/><polygon fill="#181818" points="590.34,1145.79,598.3331,1140.0358,592.8617,1141.4725,591.425,1136.0011,590.34,1145.79" style="stroke:#181818;stroke-width:1.0;"/></g><!--link src.domain.player.Player to src.domain.cards.Card--><g id="link_Player_Card"><path codeLine="80" d="M435.81,1086.29 C446.9,1106.55 455.3131,1121.6636 466.2431,1140.4536 " fill="none" id="src.domain.Player-to-src.domain.cards.Card" style="stroke:#181818;stroke-width:1.0;"/><polygon fill="#181818" points="469.26,1145.64,468.1923,1135.8492,466.7459,1141.318,461.2771,1139.8717,469.26,1145.64" style="stroke:#181818;stroke-width:1.0;"/><text fill="#000000" font-family="sans-serif" font-size="13" lengthAdjust="spacing" textLength="5.0591" x="459.2787" y="1134.8678">*</text></g><!--link src.domain.player.Player to src.domain.cards.Card--><g id="link_Player_Card"><path codeLine="81" d="M462.06,1086.29 C473.18,1106.55 481.2457,1121.5093 490.8657,1140.2993 " fill="none" id="src.domain.Player-to-src.domain.Card-1" style="stroke:#181818;stroke-width:1.0;stroke-dasharray:7.0,7.0;"/><polygon fill="#181818" points="493.6,1145.64,493.059,1135.806,491.3214,1141.1894,485.938,1139.4518,493.6,1145.64" style="stroke:#181818;stroke-width:1.0;"/></g><!--link AIPlayer to src.domain.player.Player--><g id="link_AIPlayer_Player"><path codeLine="82" d="M228.25,736.24 C240.76,754.27 244.7873,760.0754 259.3473,781.0854 " fill="none" id="AIPlayer-to-src.domain.player.Player" style="stroke:#181818;stroke-width:1.0;"/><polygon fill="none" points="269.6,795.88,264.2788,777.6678,254.4157,784.5029,269.6,795.88" style="stroke:#181818;stroke-width:1.0;"/></g><!--link AIPlayer to src.domain.cards.Card--><g id="link_AIPlayer_Card"><path codeLine="83" d="M167.5,736.07 C144.39,821.51 116.49,979.54 186.5,1086 C243.61,1172.84 357.7168,1207.8768 439.5068,1222.7468 " fill="none" id="AIPlayer-to-src.domain.cards.Card" style="stroke:#181818;stroke-width:1.0;stroke-dasharray:7.0,7.0;"/><polygon fill="#181818" points="445.41,1223.82,437.2707,1218.2746,440.4906,1222.9256,435.8397,1226.1456,445.41,1223.82" style="stroke:#181818;stroke-width:1.0;"/></g><!--link Game to src.domain.cards.Deck--><g id="link_Game_Deck"><path codeLine="84" d="M652.97,554.03 C657.84,651.34 665.1457,757.9495 672.9457,836.3095 " fill="none" id="Game-to-src.domain.cards.Deck" style="stroke:#181818;stroke-width:1.0;"/><polygon fill="#181818" points="673.54,842.28,676.6289,832.9281,673.0447,837.3046,668.6682,833.7205,673.54,842.28" style="stroke:#181818;stroke-width:1.0;"/><text fill="#000000" font-family="sans-serif" font-size="13" lengthAdjust="spacing" textLength="7.23" x="665.0426" y="831.1116">2</text></g><!--link Game to src.domain.cards.Deck--><g id="link_Game_Deck"><path codeLine="88" d="M678.01,554.03 C685.5,651.34 691.6223,757.9218 693.5523,836.2818 " fill="none" id="Game-to-src.domain.Deck-1" style="stroke:#181818;stroke-width:1.0;stroke-dasharray:7.0,7.0;"/><polygon fill="#181818" points="693.7,842.28,697.4772,833.1842,693.5769,837.2815,689.4796,833.3812,693.7,842.28" style="stroke:#181818;stroke-width:1.0;"/></g><!--link Game to src.domain.player.Player--><g id="link_Game_Player"><path codeLine="85" d="M543.74,554.03 C504.35,633.44 463.9355,717.5582 430.4555,790.4082 " fill="none" id="Game-to-src.domain.player.Player" style="stroke:#181818;stroke-width:1.0;"/><polygon fill="#181818" points="427.95,795.86,435.3428,789.3526,430.0379,791.3168,428.0737,786.0119,427.95,795.86" style="stroke:#181818;stroke-width:1.0;"/><text fill="#000000" font-family="sans-serif" font-size="13" lengthAdjust="spacing" textLength="5.0591" x="425.8358" y="784.9718">*</text></g><!--link Game to src.domain.player.Player--><g id="link_Game_Player"><path codeLine="86" d="M568.78,554.03 C531.53,633.44 490.6264,717.6601 453.6364,790.5101 " fill="none" id="Game-to-src.domain.Player-1" style="stroke:#181818;stroke-width:1.0;stroke-dasharray:7.0,7.0;"/><polygon fill="#181818" points="450.92,795.86,458.5612,789.6462,453.1837,791.4018,451.4281,786.0243,450.92,795.86" style="stroke:#181818;stroke-width:1.0;"/></g><!--link Game to AIPlayer--><g id="link_Game_AIPlayer"><path codeLine="87" d="M472.33,477.72 C404.33,524.42 334.9462,572.0636 279.1262,610.3936 " fill="none" id="Game-to-AIPlayer" style="stroke:#181818;stroke-width:1.0;stroke-dasharray:7.0,7.0;"/><polygon fill="#181818" points="274.18,613.79,283.8635,611.9929,278.3018,610.9597,279.335,605.398,274.18,613.79" style="stroke:#181818;stroke-width:1.0;"/></g><!--link Game to src.domain.cards.Card--><g id="link_Game_Card"><path codeLine="89" d="M777.27,554.28 C856.4,709.29 926.7,924.12 826.5,1086 C780.34,1160.58 689.8287,1197.2588 619.3587,1215.9888 " fill="none" id="Game-to-src.domain.cards.Card" style="stroke:#181818;stroke-width:1.0;stroke-dasharray:7.0,7.0;"/><polygon fill="#181818" points="613.56,1217.53,623.2855,1219.084,618.3922,1216.2457,621.2305,1211.3524,613.56,1217.53" style="stroke:#181818;stroke-width:1.0;"/></g><!--link Main to src.domain.player.Player--><g id="link_Main_Player"><path codeLine="90" d="M417.54,92.24 C412.47,199.26 398.27,492.14 383.5,736 C382.32,755.4 381.4083,769.8432 380.0683,789.9832 " fill="none" id="Main-to-src.domain.player.Player" style="stroke:#181818;stroke-width:1.0;stroke-dasharray:7.0,7.0;"/><polygon fill="#181818" points="379.67,795.97,384.2587,787.2554,380.0019,790.981,376.2763,786.7243,379.67,795.97" style="stroke:#181818;stroke-width:1.0;"/><text fill="#000000" font-family="sans-serif" font-size="13" lengthAdjust="spacing" textLength="7.23" x="373.0403" y="784.6081">1</text></g><!--link Main to AIPlayer--><g id="link_Main_AIPlayer"><path codeLine="91" d="M403.85,92.38 C363.55,200.23 258.1704,482.2196 211.1504,608.0396 " fill="none" id="Main-to-AIPlayer" style="stroke:#181818;stroke-width:1.0;stroke-dasharray:7.0,7.0;"/><polygon fill="#181818" points="209.05,613.66,215.9475,606.6297,210.8003,608.9764,208.4537,603.8292,209.05,613.66" style="stroke:#181818;stroke-width:1.0;"/><text fill="#000000" font-family="sans-serif" font-size="13" lengthAdjust="spacing" textLength="7.23" x="204.2648" y="602.6019">1</text></g><!--link Main to Game--><g id="link_Main_Game"><path codeLine="92" d="M451.65,92.11 C464.64,108.91 476.961,124.8526 494.211,147.1726 " fill="none" id="Main-to-Game" style="stroke:#181818;stroke-width:1.0;stroke-dasharray:7.0,7.0;"/><polygon fill="#181818" points="497.88,151.92,495.5414,142.3528,494.8225,147.9638,489.2115,147.2449,497.88,151.92" style="stroke:#181818;stroke-width:1.0;"/></g><!--SRC=[dLHDRzim3BtdLnYvB5sQ0jin6084BT05sueYATR3i8DcAOaGMp8akH_h-jz7Yh9akS60h8T2VYGVoKSoqx9YrXQNpF2NKG5_ivUjLAnwBGnJXtaXbSjXsqf7iCUd63c9lkV9VaRsdN1hi4xE4XTY6FQTLQqO6ZOGds5ERvoHQeSWlKQlez6KwhuIvO7gdfR0QD65bOTFIB-WmgtyBVe5OyXaAwiA7_FYbzQLO2fLkm7_h036UTSarpK-vruly7dGafEJ4RL-4DxlZCo4Dq8SxdJprc3txNPR-KoU9VLqMx5dOK9NUqWwBvR6iEUlqhf-Ozr45Aj5b8PQBhKHlTcnrkbxgMApGGbADEd79nbk0Er97jL1wk7CbiIFS9VXlvJxfv_jaYlnk8aDzbrcDYibXPQiAjkAEK44ZU_xyp5bGsDf6CjLDexkyvXeicuCT8AyM6FMHfmxh6FjItdhTbvmQN6BiyYeizthjk9Vb2uFVQ5JgTTGqk26kLznNFG1JebkPIMEcKaWE2Ol37KyMBeT95ktIa7x-T079BvUmOUhXxLE0CK2gU_ktUHPWxRWWNnthL4hjTLXXFDmAzcmOGXruyXmkTUo5Fao1AeRyUX7S9o9Mk42m3pQEcRSTRYD12ln55Ak51TFWTM_kpMDW-I6FQBcVkNpzF3pMJAuqmtyLuE-V5XQa1CYoHErEo5ekJenW0idJ2sLWFC36-f3GQc8JBUqkD-OLE6-Na1V9qlO7ZWih_ELiAMHZPDwSDJHjORm2LtYZvy5CplRI_5k3JF4OBkNZHsXxiLijYZ6xyTqb1wvk5ZG5rMSUmGi-dI_0U3rPz7r6C7eXiKJqSSntLX2W3h4UGnZXjyTOK8IHyo1olclyOV8c66H9Q98y1S0]--></g></svg>